<svg xmlns="http://www.w3.org/2000/svg" viewBox="0 0 128 128" width="128" height="128">
  <g transform="translate(64, 64)">
    <polygon points="-32,-22 -42,-40 -28,-30" fill="#854F0B"/>
    <polygon points="32,-22 42,-40 28,-30" fill="#854F0B"/>
    <rect x="-30" y="-22" width="60" height="60" rx="22" fill="#FAC775"/>
    <polygon points="-15,-22 -12,-30 -9,-22" fill="#854F0B"/>
    <polygon points="0,-25 3,-33 6,-25" fill="#854F0B"/>
    <polygon points="9,-22 12,-30 15,-22" fill="#854F0B"/>
    <!-- 平眼 -->
    <line x1="-16" y1="-1" x2="-8" y2="-1" stroke="#1a1410" stroke-width="2.5" stroke-linecap="round"/>
    <line x1="8" y1="-1" x2="16" y2="-1" stroke="#1a1410" stroke-width="2.5" stroke-linecap="round"/>
    <rect x="-5" y="13" width="10" height="5" rx="2.5" fill="#854F0B"/>
    <!-- 三个点 ... -->
    <circle cx="-5" cy="26" r="1.5" fill="#1a1410"/>
    <circle cx="0" cy="26" r="1.5" fill="#1a1410"/>
    <circle cx="5" cy="26" r="1.5" fill="#1a1410"/>
  </g>
  <text x="64" y="118" text-anchor="middle" fill="#854F0B" font-family="monospace" font-size="11" font-weight="700">compiling</text>
</svg>
