<svg xmlns="http://www.w3.org/2000/svg" viewBox="0 0 128 128" width="128" height="128">
  <g transform="translate(64, 64)">
    <polygon points="-32,-22 -42,-40 -28,-30" fill="#854F0B"/>
    <polygon points="32,-22 42,-40 28,-30" fill="#854F0B"/>
    <rect x="-30" y="-22" width="60" height="60" rx="22" fill="#FAC775"/>
    <polygon points="-15,-22 -12,-30 -9,-22" fill="#854F0B"/>
    <polygon points="0,-25 3,-33 6,-25" fill="#854F0B"/>
    <polygon points="9,-22 12,-30 15,-22" fill="#854F0B"/>
    <!-- 黑眼圈 -->
    <ellipse cx="-12" cy="-1" rx="7" ry="3.5" fill="#3a2d20" opacity="0.5"/>
    <ellipse cx="12" cy="-1" rx="7" ry="3.5" fill="#3a2d20" opacity="0.5"/>
    <!-- 死鱼眼 -->
    <line x1="-15" y1="-1" x2="-9" y2="-1" stroke="#1a1410" stroke-width="2.5" stroke-linecap="round"/>
    <line x1="9" y1="-1" x2="15" y2="-1" stroke="#1a1410" stroke-width="2.5" stroke-linecap="round"/>
    <rect x="-5" y="13" width="10" height="5" rx="2.5" fill="#854F0B"/>
    <!-- 一字嘴 -->
    <line x1="-5" y1="26" x2="5" y2="26" stroke="#1a1410" stroke-width="2" stroke-linecap="round"/>
  </g>
  <text x="64" y="118" text-anchor="middle" fill="#A32D2D" font-family="monospace" font-size="11" font-weight="700">996</text>
</svg>
