<svg xmlns="http://www.w3.org/2000/svg" viewBox="0 0 128 128" width="128" height="128">
  <!-- Bug 飞舞 (头顶) -->
  <g transform="translate(28, 24)">
    <ellipse cx="0" cy="0" rx="6" ry="4" fill="#1a1410"/>
    <line x1="-4" y1="-3" x2="-7" y2="-7" stroke="#1a1410" stroke-width="1.5" stroke-linecap="round"/>
    <line x1="4" y1="-3" x2="7" y2="-7" stroke="#1a1410" stroke-width="1.5" stroke-linecap="round"/>
  </g>
  <g transform="translate(102, 36)">
    <ellipse cx="0" cy="0" rx="5" ry="3" fill="#1a1410"/>
    <line x1="-3" y1="-2" x2="-5" y2="-5" stroke="#1a1410" stroke-width="1" stroke-linecap="round"/>
    <line x1="3" y1="-2" x2="5" y2="-5" stroke="#1a1410" stroke-width="1" stroke-linecap="round"/>
  </g>
  <!-- 头部 -->
  <g transform="translate(64, 76)">
    <polygon points="-32,-22 -42,-40 -28,-30" fill="#854F0B"/>
    <polygon points="32,-22 42,-40 28,-30" fill="#854F0B"/>
    <rect x="-30" y="-22" width="60" height="60" rx="22" fill="#FAC775"/>
    <polygon points="-15,-22 -12,-30 -9,-22" fill="#854F0B"/>
    <polygon points="0,-25 3,-33 6,-25" fill="#854F0B"/>
    <polygon points="9,-22 12,-30 15,-22" fill="#854F0B"/>
    <line x1="-16" y1="-5" x2="-10" y2="3" stroke="#1a1410" stroke-width="2.5" stroke-linecap="round"/>
    <line x1="-16" y1="3" x2="-10" y2="-5" stroke="#1a1410" stroke-width="2.5" stroke-linecap="round"/>
    <line x1="10" y1="-5" x2="16" y2="3" stroke="#1a1410" stroke-width="2.5" stroke-linecap="round"/>
    <line x1="10" y1="3" x2="16" y2="-5" stroke="#1a1410" stroke-width="2.5" stroke-linecap="round"/>
    <rect x="-5" y="13" width="10" height="5" rx="2.5" fill="#854F0B"/>
    <ellipse cx="0" cy="26" rx="4" ry="3" fill="#1a1410"/>
  </g>
</svg>
